<svg width="77" height="70" viewBox="0 0 77 70" fill="none" xmlns="http://www.w3.org/2000/svg">
<g clip-path="url(#clip0_21435_4303)">
<path d="M34.2162 60.9142V18.9274C33.5077 18.033 32.8232 17.247 32.2318 16.3947C31.9436 15.9791 31.6524 15.7533 31.148 15.7563C25.9452 15.7713 20.7455 15.7774 15.5427 15.7894C15.4526 15.7894 15.3655 15.8647 15.1824 15.949C15.2875 16.2472 15.3685 16.5694 15.5096 16.8615C18.2837 22.5292 21.0727 28.1909 23.8407 33.8646C24.222 34.6446 24.6273 35.28 25.5219 35.6113C26.6688 36.0329 26.933 37.1592 26.933 38.2193C26.933 39.2221 26.6297 40.2189 25.609 40.752C25.2607 40.9327 24.8915 41.0802 24.5492 41.2338C24.0118 48.073 19.2714 51.7651 14.7081 52.2018C11.4747 52.512 8.5716 51.6055 6.14884 49.3951C3.77711 47.2328 2.76238 44.405 2.44114 41.2549C2.07488 41.0501 1.71161 40.8845 1.38738 40.6586C-0.42294 39.4088 -0.479981 36.8731 1.39939 35.7649C2.26101 35.2559 2.69933 34.5964 3.10162 33.7863C5.84562 28.2662 8.60162 22.7521 11.3486 17.2319C11.5648 16.8013 11.7449 16.3526 12.0121 15.7623C11.3696 15.7623 10.8773 15.7623 10.3849 15.7623C8.03421 15.7623 5.6835 15.7593 3.33279 15.7623C2.5162 15.7623 1.73563 15.6178 1.08115 15.1118C0.192508 14.4282 -0.245811 13.1242 0.132464 12.1364C0.543763 11.0673 1.39038 10.4831 2.5162 10.3385C2.90948 10.2873 3.31478 10.3235 3.71707 10.3235C12.4714 10.3235 21.2258 10.3235 29.9772 10.3235C30.5266 10.3235 31.073 10.3235 31.4632 10.3235C32.4119 9.24234 33.2616 8.27865 34.2913 7.10717C34.2913 6.18865 34.3003 4.98705 34.2913 3.78846C34.2763 2.37605 34.7867 1.16542 36.0116 0.496859C37.3685 -0.240966 38.8186 -0.153632 40.1306 0.746816C41.1813 1.46657 41.4365 2.60493 41.5116 3.77039C41.5776 4.77022 41.5356 5.77607 41.5236 6.77891C41.5176 7.26678 41.7037 7.586 42.088 7.91727C42.6434 8.3961 43.1598 8.95926 43.538 9.58264C43.8743 10.1398 44.2556 10.3626 44.865 10.3235C45.2132 10.2994 45.5645 10.3205 45.9158 10.3205C55.1685 10.3205 64.4242 10.3265 73.6769 10.3114C74.6737 10.3114 75.5533 10.4741 76.2498 11.251C77.5558 12.7056 77.0214 14.8829 75.16 15.4913C74.6046 15.672 73.9892 15.7412 73.4007 15.7472C71.1011 15.7743 68.7984 15.7563 66.4987 15.7593C66.0184 15.7593 65.541 15.7834 64.9166 15.7984C65.0817 16.217 65.1568 16.4489 65.2618 16.6658C66.7569 19.7797 68.258 22.8936 69.7531 26.0075C71.077 28.7601 72.398 31.5156 73.71 34.2712C73.9772 34.8313 74.2864 35.1837 74.9799 35.3704C76.0457 35.6565 76.7302 36.5238 76.9283 37.635C77.1265 38.7463 76.8863 39.9118 75.8775 40.4087C74.5206 41.0802 74.4245 42.1252 74.1603 43.4081C73.3707 47.2177 71.2001 50.0787 67.4955 51.4881C63.6767 52.9396 60.068 52.4638 56.7747 49.9251C53.9616 47.7568 52.7968 44.7934 52.5116 41.276C52.2173 41.1375 51.8631 40.9748 51.5148 40.8032C50.377 40.246 49.9597 39.1498 50.0107 38.0657C50.0648 36.9183 50.5601 35.7077 51.8781 35.4366C52.7757 35.2529 53.088 34.7078 53.4152 34.0212C56.1382 28.3294 58.8702 22.6436 61.5932 16.9519C61.7373 16.6537 61.8003 16.3164 61.9474 15.8526C61.386 15.8165 60.9537 15.7623 60.5184 15.7623C55.4177 15.7563 50.314 15.7713 45.2132 15.7442C44.3967 15.7412 43.7812 15.8647 43.3789 16.6899C43.1688 17.1205 42.7485 17.4729 42.3612 17.783C41.6647 18.3372 41.4965 19.0268 41.4995 19.8881C41.5266 27.6669 41.5146 35.4426 41.5146 43.2214V60.8389C42.076 60.866 42.5533 60.881 43.0307 60.9172C44.2706 61.0075 45.5225 61.0075 46.7414 61.2183C49.5934 61.7122 51.4308 63.5462 52.5746 66.091C52.9559 66.9342 53.1 67.913 53.2051 68.8495C53.2981 69.6747 53.0009 69.9186 52.1783 69.9879C51.8811 70.012 51.5779 69.9969 51.2777 69.9969C42.3732 69.9969 33.4687 69.9969 24.5672 69.9969C22.5348 69.9969 22.2646 69.6054 22.7149 67.5696C23.5735 63.6878 26.7798 61.0045 31.0279 60.9202C32.0247 60.8991 33.0244 60.9202 34.2042 60.9202L34.2162 60.9142ZM13.5822 16.9368C11.9911 19.5388 4.83388 34.1146 4.5847 35.2228C8.90184 35.4878 21.3789 35.3704 22.5918 35.024C19.6166 29.0522 16.6505 23.0954 13.5822 16.9368ZM72.2989 35.2017C70.8039 32.0547 69.4108 29.01 67.9128 26.0166C66.4327 23.0623 65.2498 19.9544 63.4455 16.9007C60.4854 23.1044 57.6303 29.0883 54.7152 35.2017H72.2989ZM35.9275 19.5839C35.9065 19.7526 35.8644 19.9453 35.8644 20.1381C35.8795 33.6267 35.8975 47.1153 35.9185 60.601C35.9185 60.6401 35.9665 60.6823 35.9965 60.7214C36.0266 60.7606 36.0626 60.7967 36.1346 60.875C37.2725 60.866 38.4553 61.0647 39.6052 60.7515C39.8604 58.3514 39.7643 20.5928 39.5151 19.5839H35.9245H35.9275ZM4.3115 41.1615C4.28148 44.7031 5.80059 47.3352 8.52056 49.115C11.5798 51.1147 14.8522 51.217 18.1125 49.3499C21.2588 47.549 22.5137 44.7031 22.874 41.1615H4.3115ZM54.1658 41.1344C54.487 44.95 56.0061 47.8532 59.3235 49.627C62.2807 51.208 66.6458 50.8014 69.0566 48.7807C71.6955 46.5733 73.1185 43.4202 72.4761 41.1344H54.1628H54.1658ZM51.3557 68.3466C51.1335 65.4525 48.3986 62.7753 45.7026 62.7542C40.6109 62.7151 35.5192 62.8235 30.4305 62.706C27.7285 62.6428 24.4562 65.2176 24.3601 68.3466H51.3557ZM13.4471 39.5173C16.7916 39.5173 20.136 39.5233 23.4804 39.5173C24.7804 39.5142 25.2517 39.1679 25.2878 38.2554C25.3268 37.2706 24.8134 36.8611 23.4654 36.8611C16.8756 36.8551 10.2858 36.8551 3.69906 36.8611C3.30577 36.8611 2.89747 36.8882 2.5222 36.9996C1.99682 37.1562 1.6966 37.5869 1.66958 38.1229C1.63656 38.7312 1.96079 39.204 2.54022 39.3787C2.95752 39.5052 3.42286 39.5112 3.86718 39.5112C7.0615 39.5203 10.2558 39.5173 13.4501 39.5173H13.4471ZM63.5986 36.8551C60.4043 36.8551 57.21 36.8551 54.0156 36.8551C53.6164 36.8551 53.2111 36.8249 52.8208 36.8792C52.1033 36.9815 51.716 37.5055 51.749 38.2554C51.776 38.933 52.1513 39.3847 52.8118 39.4932C53.055 39.5323 53.3101 39.5142 53.5593 39.5142C60.1491 39.5142 66.7389 39.5142 73.3257 39.5082C73.719 39.5082 74.1333 39.4962 74.5025 39.3757C75.076 39.189 75.4002 38.7222 75.3702 38.1139C75.3402 37.5808 75.0399 37.1412 74.5145 36.9966C74.0912 36.8792 73.6319 36.8581 73.1876 36.8581C69.9933 36.846 66.7989 36.852 63.6046 36.852L63.5986 36.8551ZM42.7184 13.1995C42.8355 9.73322 40.5689 8.07989 37.8009 8.01364C34.9398 7.94738 32.9914 10.3566 32.8713 13.0218C32.7542 15.6117 35.3931 18.2619 37.948 18.0782C40.9742 17.8613 42.9376 15.7472 42.7184 13.1965V13.1995ZM44.6308 13.856C45.1472 13.8831 45.5855 13.9283 46.0238 13.9283C55.2285 13.9313 64.4332 13.9313 73.6379 13.9283C73.8871 13.9283 74.1393 13.9403 74.3885 13.9192C74.9829 13.865 75.3672 13.4916 75.3462 13.0007C75.3281 12.5309 74.9289 12.1876 74.3254 12.1394C74.1273 12.1244 73.9261 12.1334 73.725 12.1334C64.4212 12.1334 55.1144 12.1334 45.8107 12.1364C45.4294 12.1364 45.0451 12.2027 44.6308 12.2418V13.847V13.856ZM31.1961 12.2177C30.6827 12.1876 30.2444 12.1424 29.809 12.1424C21.0066 12.1394 12.2012 12.1394 3.39884 12.1424C3.09862 12.1424 2.7984 12.1424 2.49818 12.1575C1.93377 12.1906 1.6966 12.5942 1.70861 13.067C1.72062 13.5458 1.98781 13.9192 2.55523 13.9253C2.80441 13.9253 3.05659 13.9343 3.30577 13.9343C12.2102 13.9343 21.1147 13.9343 30.0162 13.9313C30.4005 13.9313 30.7818 13.8681 31.1991 13.8289V12.2207L31.1961 12.2177ZM39.7042 6.45366C39.7042 5.35747 39.6952 4.30946 39.7072 3.26144C39.7132 2.69829 39.44 2.31582 39.0017 2.01467C37.8549 1.22565 36.636 1.63221 36.1226 2.9633C35.6723 4.12876 35.8885 5.31832 35.8945 6.45366H39.7042Z" fill="#031A26"/>
<path d="M37.7377 10.3235C39.1968 10.2963 40.4637 11.4859 40.4847 12.9073C40.5057 14.4041 39.3469 15.6599 37.9298 15.6749C36.5578 15.69 35.2039 14.3649 35.2189 13.0218C35.2369 11.6636 36.4618 10.3445 37.7347 10.3235H37.7377ZM37.7557 12.1635C37.3054 12.2057 37.0382 12.4978 37.0382 13.0338C37.0382 13.6151 37.4015 13.9554 37.9869 13.9132C38.5243 13.874 38.7855 13.5729 38.7855 13.0368C38.7855 12.4556 38.4222 12.1183 37.7557 12.1635Z" fill="#031A26"/>
</g>
<defs>
<clipPath id="clip0_21435_4303">
<rect width="77" height="70" fill="white"/>
</clipPath>
</defs>
</svg>
