<svg width="69" height="70" viewBox="0 0 69 70" fill="none" xmlns="http://www.w3.org/2000/svg">
<g clip-path="url(#clip0_21435_4332)">
<path d="M60.4417 34.1443V35.9075C60.4417 44.9144 60.4417 53.9213 60.4417 62.9255C60.4417 63.2885 60.4608 63.6542 60.4336 64.0172C60.3709 64.8551 60.0006 65.229 59.1565 65.3027C58.7971 65.3355 58.4322 65.3137 58.0673 65.3137C52.0305 65.3137 45.9964 65.33 39.9596 65.2973C39.1127 65.2918 38.5191 65.4692 38.0453 66.2362C37.5252 67.0823 36.8445 67.8301 36.2291 68.6134C34.7859 70.4503 34.255 70.4585 32.8281 68.6599C32.1801 67.841 31.4803 67.055 30.9275 66.1734C30.4728 65.4474 29.9118 65.2918 29.1194 65.2973C24.1718 65.3273 19.2269 65.3109 14.2793 65.3109C12.9641 65.3109 11.6462 65.3218 10.331 65.3082C8.89596 65.2945 8.58282 64.9834 8.58282 63.5286C8.57737 54.3416 8.58009 45.1518 8.58009 35.9648C8.58009 35.4353 8.58009 34.9058 8.58009 34.1498C7.77137 34.9358 7.13692 35.5745 6.47796 36.1886C5.54126 37.062 4.43846 37.6024 3.1505 37.3977C1.7645 37.1766 0.710716 36.3988 0.228751 35.0314C-0.264107 33.623 0.0435888 32.332 1.06742 31.2621C1.9769 30.3096 2.949 29.4198 3.89931 28.5054C5.30709 27.1517 6.70124 25.7843 8.13897 24.4633C8.62094 24.0211 8.58009 23.508 8.58282 22.9676C8.58282 18.647 8.58282 14.3237 8.58282 10.0031C8.58282 9.68375 8.5692 9.36442 8.58554 9.04781C8.64 8.04341 8.98582 7.67767 10.0233 7.66402C12.2016 7.63946 14.38 7.63673 16.5584 7.66402C17.683 7.67767 17.9607 7.99428 17.9716 9.17609C17.9879 11.0402 17.9771 12.9044 17.9771 14.9214C18.2766 14.6867 18.5108 14.5366 18.7068 14.3455C21.7838 11.3841 24.8498 8.4146 27.9268 5.45597C29.4326 4.00941 30.9819 2.60651 32.4578 1.1272C33.9799 -0.395787 36.4796 -0.382141 37.9473 1.1463C39.0801 2.32539 40.2537 3.46626 41.4082 4.62351C50.0073 13.2428 58.6092 21.8622 67.2056 30.487C67.6195 30.9018 68.0143 31.3467 68.371 31.8134C69.482 33.2709 68.9755 35.3289 68.0007 36.3032C66.6882 37.6133 64.9292 37.9026 63.4316 36.8464C62.5874 36.2514 61.8822 35.4544 61.117 34.7502C60.9564 34.6028 60.793 34.4527 60.4445 34.1361L60.4417 34.1443ZM35.1236 8.76942C34.8649 8.98231 34.6525 9.14061 34.4619 9.32075C30.8485 12.7679 27.2297 16.2124 23.6272 19.6732C20.1554 23.0085 16.7027 26.3629 13.2364 29.7064C12.7462 30.1785 12.2534 30.6507 11.7224 31.0765C11.1179 31.5623 10.8347 32.1137 10.8374 32.9352C10.8674 42.5344 10.8565 52.1308 10.8592 61.73C10.8592 62.0794 10.9218 62.4287 10.96 62.819H28.4224C28.1337 62.3605 27.9077 61.9811 27.6654 61.6181C26.0289 59.1562 24.5176 56.6261 23.3467 53.9076C22.4917 51.9207 21.9226 49.86 22.2957 47.682C22.8675 44.3276 24.4332 41.5218 27.1916 39.4748C30.0806 37.3322 33.3591 36.6444 36.8527 37.2913C39.8479 37.8481 42.364 39.3629 44.202 41.8329C46.6172 45.0781 47.5567 48.6372 46.1707 52.5975C45.234 55.2723 43.8289 57.7096 42.334 60.0978C41.784 60.9794 41.204 61.8446 40.624 62.7399C42.1597 62.9582 57.0135 62.9145 58.1626 62.6689V61.3615C58.1626 51.9452 58.149 42.5289 58.1817 33.1126C58.1844 32.171 57.9012 31.5132 57.2368 30.8527C50.187 23.83 43.17 16.7774 36.1393 9.73561C35.8234 9.41901 35.4912 9.12423 35.1181 8.77215L35.1236 8.76942ZM2.43163 33.4483C2.27915 34.652 3.39012 35.4408 4.14438 34.9877C4.48747 34.7803 4.81967 34.5401 5.11375 34.2671C6.21383 33.2491 7.29757 32.2201 8.38132 31.183C12.7081 27.0425 17.0376 22.9021 21.359 18.7507C24.5013 15.732 27.63 12.6942 30.7696 9.67284C31.6845 8.79125 32.692 7.99701 33.5361 7.05538C34.9221 5.50783 35.562 5.8217 36.8445 7.11269C45.7404 16.0732 54.6663 25.0009 63.5868 33.9369C63.9081 34.2562 64.213 34.6056 64.5834 34.8594C65.1797 35.2661 65.8468 35.1624 66.307 34.6738C66.7318 34.2207 66.7509 33.4811 66.3261 32.9352C66.1327 32.6868 65.8931 32.4712 65.6671 32.2474C56.0441 22.6018 46.4212 12.9563 36.7982 3.31069C36.6049 3.1169 36.4224 2.91493 36.2155 2.73752C35.4966 2.1125 34.8921 2.10158 34.1733 2.73752C33.4272 3.39803 32.692 4.07491 31.9704 4.76544C27.7389 8.81309 23.5101 12.8635 19.2895 16.922C16.2126 19.8779 13.1492 22.8502 10.075 25.8116C7.75503 28.0469 5.41873 30.2686 3.10965 32.5176C2.772 32.8451 2.546 33.2873 2.42891 33.4511L2.43163 33.4483ZM34.4646 66.9813C34.6825 66.7766 34.8295 66.6756 34.9303 66.5391C36.5232 64.3365 38.1951 62.1858 39.6764 59.9095C41.0079 57.8625 42.1979 55.7145 43.3143 53.5419C44.1012 52.0135 44.6975 50.3567 44.5042 48.5826C43.8534 42.5972 38.9575 39.2782 34.2304 39.3601C27.4857 39.4775 22.6224 46.7512 25.231 52.4283C25.4952 53.0042 25.713 53.6019 25.9853 54.1724C27.7552 57.8734 30.116 61.2005 32.5286 64.4948C33.1358 65.3246 33.7893 66.1188 34.4646 66.9813ZM10.911 21.854C12.4304 20.3692 13.7755 19.0209 15.1615 17.719C15.6135 17.2959 15.7061 16.8265 15.7034 16.2588C15.687 14.4874 15.7034 12.7133 15.6925 10.942C15.6925 10.639 15.638 10.3361 15.6081 10.0249H10.911V21.8567V21.854Z" fill="black"/>
<path d="M27.6518 49.3469C27.5564 46.2818 29.9826 42.5016 34.4673 42.458C38.8758 42.417 41.4164 46.1481 41.3837 49.3933C41.3456 53.2035 38.3285 56.2413 34.5545 56.2713C30.8131 56.3013 27.5973 53.2717 27.6518 49.3442V49.3469ZM34.4973 53.8613C37.1113 53.864 39.0937 51.9398 39.0855 49.3715C39.0773 46.7431 36.9425 44.8161 34.5245 44.8107C32.0902 44.8052 29.9608 46.7267 29.9363 49.3469C29.9118 51.918 31.8941 53.8585 34.5 53.864L34.4973 53.8613Z" fill="black"/>
</g>
<defs>
<clipPath id="clip0_21435_4332">
<rect width="69" height="70" fill="white"/>
</clipPath>
</defs>
</svg>
