<svg width="70" height="70" viewBox="0 0 70 70" fill="none" xmlns="http://www.w3.org/2000/svg">
<g clip-path="url(#clip0_21435_4312)">
<path d="M61.7062 55.9039V54.4804C61.7062 38.9549 61.7062 23.4294 61.712 7.90394C61.712 6.87046 61.584 5.86609 61.1096 4.94906C60.2453 3.28094 58.7437 2.6201 56.9598 2.45707C56.7182 2.43378 56.4738 2.45125 56.2322 2.45125C42.5547 2.45125 28.88 2.45125 15.2025 2.45125H13.7911C14.0151 2.84717 14.1577 3.09171 14.2945 3.34208C14.8853 4.4134 15.2665 5.53713 15.2636 6.78604C15.2519 12.1223 15.2607 17.4585 15.2607 22.7948C15.2607 22.9898 15.2694 23.1849 15.2549 23.377C15.1821 24.2795 14.8387 24.5939 13.9715 24.5648C13.1712 24.5386 12.8424 24.2591 12.8307 23.3887C12.7987 20.8675 12.8162 18.3435 12.8162 15.8195C12.8162 15.2955 12.8162 14.7715 12.8162 14.0903C11.1603 14.0903 9.62378 14.1106 8.08723 14.0844C5.58453 14.0437 3.59983 13.0102 2.24371 10.8821C-0.189145 7.08298 1.3474 1.58371 6.46921 0.122281C7.10361 -0.0582142 7.81659 0.014566 8.49465 0.014566C18.7761 0.0087436 29.0575 0.0116548 39.339 0.0116548C45.3047 0.0116548 51.2705 0.0058324 57.2333 0.014566C59.8117 0.0174772 61.7935 1.1412 63.1554 3.3217C63.8073 4.36391 64.1565 5.50511 64.1536 6.75401C64.1449 10.8297 64.1536 14.9054 64.1536 18.9811C64.1536 30.722 64.1536 42.4629 64.1536 54.2038V55.8312C64.6745 56.032 65.1168 56.2067 65.5621 56.3697C68.1434 57.3188 69.8458 59.8545 69.9942 62.6172C70.1601 65.7555 68.0619 68.9578 64.625 69.805C63.8859 69.9855 63.0914 69.9855 62.3231 69.9855C50.2461 69.9971 38.172 69.9942 26.095 69.9942C23.9619 69.9942 21.8259 69.968 19.6928 69.9971C16.3607 70.0466 12.8133 67.2839 12.822 63.1907C12.8249 61.54 12.7987 59.8923 12.8365 58.2416C12.8569 57.3508 13.2585 57.0364 14.1316 57.0743C14.9231 57.1092 15.2316 57.3887 15.2519 58.2708C15.2898 59.6769 15.2461 61.0859 15.2723 62.492C15.2927 63.5168 15.4848 64.5007 16.0697 65.3857C17.0679 66.8967 18.52 67.6594 20.2544 67.4556C22.2712 67.2198 23.6767 66.099 24.2442 63.9971C24.5643 62.8152 24.282 61.8021 23.8426 60.7802C23.1733 59.2169 23.732 56.7424 26.1387 56.032C26.68 55.8719 27.2882 55.9098 27.8673 55.9069C38.5358 55.901 49.2072 55.901 59.8757 55.901H61.7091L61.7062 55.9039ZM25.2977 67.4847C25.8797 67.5138 26.2115 67.5459 26.5461 67.5459C38.3699 67.5459 50.1937 67.5546 62.0205 67.5342C62.7364 67.5342 63.4784 67.4323 64.1565 67.2198C66.1034 66.6055 67.1568 65.1645 67.4886 63.2082C67.7418 61.7205 66.5661 59.7322 65.0063 58.9374C64.0896 58.4687 63.0856 58.3435 62.0554 58.3464C50.9096 58.3552 39.7639 58.3523 28.6181 58.3523C28.3766 58.3523 28.1321 58.3435 27.8906 58.3523C26.3919 58.4309 26.0136 59.0189 26.4879 60.428C26.6858 61.0131 26.8197 61.6332 26.8866 62.2475C27.0845 64.1019 26.5956 65.7875 25.3006 67.4818L25.2977 67.4847ZM12.8133 11.6652C12.8133 10.0204 12.8831 8.57352 12.7987 7.13247C12.595 3.7118 9.61213 1.80205 6.78932 2.77148C4.73478 3.47599 3.7075 4.96653 3.68713 7.03349C3.66676 9.04222 4.72023 10.69 6.88535 11.3595C8.7682 11.9389 10.7093 11.5633 12.8133 11.6652Z" fill="#031A26"/>
<path d="M0.0116296 40.8413C-0.352135 32.7016 7.02502 25.508 15.2607 25.5575C23.345 25.6041 30.4951 32.5036 30.4573 40.9578C30.4224 49.0306 23.3915 56.1456 15.1442 56.0873C6.86205 56.0291 -0.291023 48.9723 0.0116296 40.8413ZM15.1995 28.0786C7.93006 28.5182 2.52015 33.4323 2.55798 40.9374C2.59291 48.2707 7.99991 53.1325 15.1297 53.5721C22.9055 53.115 27.9517 47.7904 27.8469 40.6463C27.7392 33.3246 22.3846 28.5066 15.2025 28.0815L15.1995 28.0786Z" fill="#031A26"/>
<path d="M46.0992 18.6696C45.2843 17.5517 44.4928 16.4658 43.7012 15.3828C43.5295 15.1499 43.3084 14.9403 43.192 14.6812C42.9126 14.0669 43.1163 13.246 43.5674 12.9782C44.1087 12.6579 44.9904 12.7977 45.4007 13.3246C46.169 14.3115 46.9024 15.3246 47.755 16.4687C48.2672 15.8399 48.7154 15.3013 49.149 14.7482C49.4778 14.329 49.7717 13.8864 50.1006 13.4672C50.6128 12.8122 51.5818 12.6143 52.126 13.0364C52.612 13.4148 52.6673 14.3639 52.1901 15.0276C51.5702 15.8894 50.9038 16.7191 50.2694 17.572C50.0133 17.9156 49.7892 18.2853 49.4953 18.7278C50.3101 19.8457 51.1017 20.9316 51.8961 22.0175C52.0678 22.2504 52.289 22.46 52.4054 22.7191C52.6848 23.3333 52.4811 24.1543 52.0271 24.4221C51.4858 24.7423 50.604 24.6026 50.1937 24.0757C49.4254 23.0888 48.6921 22.0757 47.8394 20.9316C47.3272 21.5604 46.8791 22.099 46.4455 22.6521C46.1166 23.0713 45.8227 23.5138 45.4939 23.933C44.9817 24.5881 44.0126 24.786 43.4655 24.361C42.9795 23.9825 42.9271 23.0364 43.4044 22.3726C44.0243 21.5109 44.6907 20.6812 45.3251 19.8282C45.5812 19.4847 45.8023 19.115 46.0992 18.6725V18.6696Z" fill="#031A26"/>
<path d="M38.9665 22.297H35.7042C35.5151 22.7453 35.2997 23.2169 35.1193 23.6972C34.8836 24.3202 34.4558 24.6085 33.7835 24.5764C32.9891 24.5415 32.6137 24.2154 32.6253 23.4265C32.6311 23.051 32.733 22.6638 32.861 22.3086C33.8796 19.4993 34.9156 16.6958 35.9458 13.8894C36.1786 13.2547 36.5191 12.8122 37.299 12.8093C38.0643 12.8093 38.4397 13.1965 38.6784 13.8486C39.7231 16.7016 40.7766 19.5488 41.8213 22.4018C41.9202 22.6696 41.9988 22.9549 42.0221 23.2373C42.0657 23.7991 41.9668 24.3086 41.3353 24.5182C40.6194 24.754 39.9414 24.5182 39.6154 23.8661C39.3797 23.3945 39.2109 22.8908 38.9694 22.297H38.9665Z" fill="#031A26"/>
<path d="M43.6343 42.0495C40.6776 42.0495 37.7181 42.0495 34.7614 42.0495C34.4209 42.0495 34.0804 42.067 33.7428 42.0378C32.9018 41.9651 32.6224 41.6594 32.6108 40.8472C32.6021 40.0262 32.8814 39.6972 33.6963 39.6157C33.9844 39.5866 34.2783 39.6041 34.5693 39.6041C40.6776 39.6041 46.7889 39.6041 52.8972 39.6041C53.0427 39.6041 53.1882 39.6012 53.3338 39.6041C54.5007 39.6419 54.8499 39.9389 54.8266 40.8763C54.8063 41.7555 54.4978 42.032 53.3774 42.0437C51.3403 42.064 49.3032 42.0495 47.2691 42.0495C46.0555 42.0495 44.8449 42.0495 43.6314 42.0495H43.6343Z" fill="#031A26"/>
<path d="M43.7216 49.0364C40.7649 49.0364 37.8053 49.0364 34.8486 49.0364C34.5576 49.0364 34.2666 49.0451 33.9756 49.0335C32.9309 48.9869 32.5991 48.6754 32.6137 47.7758C32.6282 46.9228 32.9221 46.6521 33.9058 46.5939C34.1473 46.5793 34.3918 46.588 34.6333 46.588C40.6951 46.588 46.7539 46.588 52.8157 46.588C54.4803 46.588 54.815 46.7889 54.8324 47.7758C54.8499 48.8122 54.4861 49.0335 52.7401 49.0335C50.121 49.0335 47.5048 49.0335 44.8856 49.0335C44.4986 49.0335 44.1086 49.0335 43.7216 49.0335V49.0364Z" fill="#031A26"/>
<path d="M27.9488 15.2605C27.0466 15.2605 26.322 15.2926 25.6032 15.2518C24.7535 15.2023 24.4741 14.885 24.4624 14.0728C24.4508 13.2547 24.736 12.853 25.5392 12.8413C27.9633 12.8064 30.3874 12.8064 32.8145 12.8413C33.6089 12.853 33.8941 13.2664 33.8738 14.0873C33.8563 14.8937 33.5769 15.2023 32.7155 15.2489C31.9996 15.2867 31.2779 15.2576 30.4718 15.2576C30.4398 15.7875 30.3962 16.2096 30.3933 16.6288C30.3845 18.8617 30.4107 21.0917 30.3758 23.3246C30.3612 24.326 29.8374 24.7103 28.8654 24.556C28.1845 24.4483 27.9575 24.1485 27.9488 23.1616C27.9284 21.0742 27.9429 18.9898 27.9429 16.9025C27.9429 16.4221 27.9429 15.9418 27.9429 15.2576L27.9488 15.2605Z" fill="#031A26"/>
<path d="M38.7744 32.6143C40.471 32.6143 42.1676 32.6143 43.8642 32.6143C44.2047 32.6143 44.5452 32.5939 44.8798 32.6376C45.4822 32.7162 45.9566 33.2402 45.977 33.805C45.9973 34.3464 45.5201 34.9403 44.9439 35.0335C44.6587 35.0801 44.3648 35.0597 44.0737 35.0597C40.439 35.0597 36.8043 35.0655 33.1695 35.0597C31.793 35.0597 31.4642 34.8152 31.4496 33.8719C31.4351 32.9083 31.7872 32.6288 33.1055 32.6201C34.9942 32.6085 36.8858 32.6172 38.7744 32.6172V32.6143Z" fill="#031A26"/>
<path d="M13.9191 32.6492C13.9453 32.1805 13.9453 31.7467 13.9977 31.3159C14.0879 30.5677 14.3877 30.3173 15.1443 30.294C15.9649 30.2708 16.3142 30.5531 16.4102 31.3421C16.4393 31.5808 16.4131 31.8283 16.4306 32.067C16.4451 32.2562 16.4858 32.4425 16.5237 32.6783C17.6615 33.1296 18.6801 33.7322 19.3116 34.8501C19.783 35.6798 19.9867 36.5531 19.8994 37.4964C19.8354 38.1951 19.5706 38.4571 18.9216 38.5357C18.1039 38.6347 17.7081 38.3988 17.4927 37.6681C17.3822 37.2984 17.3327 36.9083 17.1959 36.5502C16.8496 35.6507 15.8951 35.0335 15.0512 35.1208C14.0472 35.2256 13.1712 36.0786 13.0141 37.1092C12.8744 38.0175 13.5001 38.9869 14.4895 39.3421C14.8475 39.4702 15.2345 39.5692 15.6128 39.5924C17.9758 39.7526 19.5298 41.3595 19.847 43.3071C20.2312 45.6419 19.4454 47.6186 17.1464 48.6929C16.9747 48.7744 16.7914 48.8297 16.5033 48.9374C16.4713 49.3916 16.4597 49.8632 16.4015 50.3319C16.3112 51.0772 16.0115 51.3304 15.2549 51.3537C14.4342 51.377 14.0792 51.0946 13.989 50.3028C13.9395 49.8748 13.9395 49.444 13.9133 48.9811C12.7376 48.5124 11.7191 47.9098 11.0847 46.7948C10.6132 45.9651 10.4095 45.0888 10.4968 44.1485C10.5608 43.4469 10.8257 43.1849 11.4717 43.1092C12.2895 43.0102 12.6852 43.246 12.9006 43.9738C13.0112 44.3435 13.0606 44.7336 13.1974 45.0917C13.5437 45.9913 14.4953 46.6085 15.3422 46.5211C16.3462 46.4163 17.2221 45.5633 17.3793 44.5328C17.5189 43.6245 16.8933 42.655 15.9038 42.2999C15.5459 42.1718 15.1588 42.0757 14.7805 42.0495C12.4262 41.8894 10.8664 40.2911 10.5434 38.3348C10.1592 35.9942 10.9479 34.0233 13.244 32.9491C13.4564 32.8501 13.6718 32.754 13.9133 32.6463L13.9191 32.6492Z" fill="#031A26"/>
</g>
<defs>
<clipPath id="clip0_21435_4312">
<rect width="70" height="70" fill="white"/>
</clipPath>
</defs>
</svg>
